<?xml version="1.0" encoding="UTF-8" standalone="no"?>
<!-- Created with Inkscape (http://www.inkscape.org/) -->

<svg
   version="1.1"
   id="svg2"
   width="2530.6667"
   height="3162.6667"
   viewBox="0 0 2530.6667 3162.6667"
   sodipodi:docname="rocket.eps"
   xmlns:inkscape="http://www.inkscape.org/namespaces/inkscape"
   xmlns:sodipodi="http://sodipodi.sourceforge.net/DTD/sodipodi-0.dtd"
   xmlns="http://www.w3.org/2000/svg"
   xmlns:svg="http://www.w3.org/2000/svg">
  <defs
     id="defs6" />
  <sodipodi:namedview
     id="namedview4"
     pagecolor="#ffffff"
     bordercolor="#000000"
     borderopacity="0.25"
     inkscape:showpageshadow="2"
     inkscape:pageopacity="0.0"
     inkscape:pagecheckerboard="0"
     inkscape:deskcolor="#d1d1d1" />
  <g
     id="g8"
     inkscape:groupmode="layer"
     inkscape:label="ink_ext_XXXXXX"
     transform="matrix(1.3333333,0,0,-1.3333333,0,3162.6667)">
    <g
       id="g10"
       transform="scale(0.1)">
      <path
         d="m 15161.1,9223.9 -2128.3,2610.9 c 50.2,405 84.3,816.7 98.3,1232.8 86,2556.1 -605.5,4946.7 -1417.7,6740.1 l -0.1,0.1 c -133.9,295.7 -271.1,575.2 -408.6,836.5 l -0.1,0.1 c -19.2,36.5 -38.3,72.3 -57.5,108 -6,11.1 -12.1,22.5 -18.1,33.6 -17.8,33 -35.7,65.5 -53.5,97.9 -7.3,13.3 -14.6,26.6 -21.9,39.7 -17.4,31.5 -34.8,62.5 -52.2,93.3 -7.5,13.2 -15,26.4 -22.4,39.5 -17.5,30.7 -34.9,61 -52.2,91 -7.1,12.1 -14.1,24.1 -21.1,36.1 -18,30.9 -36.1,61.7 -54,91.9 -5.1,8.5 -10.1,16.8 -15.1,25.2 -86.1,144 -171.3,280 -254.8,407.4 -4.9,7.5 -9.8,15.2 -14.7,22.6 -17.1,25.9 -34,51.3 -50.9,76.4 -7.1,10.5 -14.1,21.1 -21.2,31.5 -16,23.7 -31.9,46.9 -47.8,69.9 -7.7,11.2 -15.4,22.3 -23.1,33.3 -15.4,22.2 -30.8,44.1 -46,65.6 -7.9,11 -15.7,21.9 -23.5,32.8 -15.1,21.1 -30.2,42 -45.1,62.5 -7.5,10.2 -14.9,20.2 -22.4,30.3 -15.2,20.6 -30.3,41.1 -45.3,61 -5.7,7.6 -11.4,14.9 -17.1,22.4 -50.9,67.1 -100.6,130 -148.9,188.8 -7.9,9.7 -15.9,19.6 -23.8,29.1 -12,14.4 -23.8,28.2 -35.7,42.1 -9,10.6 -18,21.3 -27,31.6 -11.1,12.9 -22.1,25.4 -33.1,37.8 -9.3,10.5 -18.6,20.9 -27.7,31.1 -10.5,11.6 -20.9,22.9 -31.17,34 -9.45,10.2 -18.79,20.2 -28.1,30 -9.76,10.3 -19.44,20.5 -29.01,30.4 -9.67,9.9 -19.15,19.4 -28.63,28.9 -8.9,8.9 -17.86,18 -26.61,26.5 -10.37,10.2 -20.48,19.6 -30.6,29.1 -7.5,7.1 -15.15,14.5 -22.5,21.3 -16.87,15.4 -33.39,30.1 -49.52,43.9 -5.14,4.4 -10,8.1 -15.06,12.4 -11.38,9.4 -22.72,18.8 -33.69,27.4 -6.27,4.9 -12.26,9.3 -18.39,13.9 -6.34,4.8 -12.85,9.9 -19.06,14.4 h 0.05 l -0.81,0.6 -8.01,5.5 c -6.24,4.4 -12.26,8.4 -18.34,12.5 -8.57,5.7 -17.04,11.2 -25.29,16.3 -5.88,3.7 -11.66,7 -17.41,10.4 -8.03,4.6 -15.88,8.9 -23.58,12.8 -5.4,2.8 -10.76,5.5 -15.99,8 l -5.77,2.8 -1.69,0.9 c -5.18,2.3 -9.99,3.9 -15.01,5.8 l -14,5.4 c -5.12,1.8 -10,3.1 -14.92,4.4 l -9.56,2.5 -8.89,2.2 c -10.53,2 -20.66,3.2 -30.11,3.2 -9.46,0 -19.55,-1.2 -30.13,-3.2 l -10.89,-2.8 c -7.32,-1.7 -14.69,-3.6 -22.47,-6.3 l -14,-5.4 c -7.36,-2.9 -14.77,-6 -22.46,-9.5 -5.24,-2.5 -10.61,-5.2 -16,-8 -7.71,-3.9 -15.55,-8.2 -23.59,-12.8 -5.72,-3.4 -11.49,-6.7 -17.4,-10.4 -8.22,-5.1 -16.7,-10.6 -25.25,-16.3 -6.1,-4.1 -12.14,-8.1 -18.41,-12.5 -9.01,-6.4 -18.33,-13.4 -27.67,-20.4 -6.19,-4.6 -12.23,-9.1 -18.55,-14 -10.92,-8.6 -22.23,-17.9 -33.55,-27.4 -5.09,-4.2 -10,-8 -15.17,-12.4 -16.1,-13.8 -32.66,-28.5 -49.52,-43.9 -7.4,-6.8 -15.11,-14.3 -22.69,-21.4 -10.05,-9.5 -20.04,-18.9 -30.34,-28.9 -8.79,-8.6 -17.83,-17.7 -26.83,-26.7 -9.42,-9.5 -18.84,-18.9 -28.45,-28.8 -9.56,-9.9 -19.29,-20.1 -29.04,-30.4 -9.28,-9.8 -18.63,-19.8 -28.1,-30 -10.3,-11.1 -20.68,-22.5 -31.16,-34.1 -9.12,-10.1 -18.33,-20.4 -27.56,-30.9 -11.07,-12.5 -22.15,-25 -33.42,-38 -8.78,-10.1 -17.66,-20.7 -26.53,-31.1 -11.99,-14.1 -23.91,-28 -36.09,-42.7 -7.62,-9.1 -15.39,-18.7 -23.07,-28.1 -48.53,-59.1 -98.45,-122.3 -149.66,-189.7 -5.69,-7.5 -11.27,-14.7 -16.96,-22.3 -15.06,-20 -30.3,-40.6 -45.54,-61.3 -7.36,-9.9 -14.69,-19.8 -22.06,-29.9 -15.01,-20.5 -30.16,-41.5 -45.32,-62.7 -7.77,-10.8 -15.53,-21.7 -23.32,-32.7 -15.34,-21.6 -30.75,-43.5 -46.25,-65.8 -7.56,-10.9 -15.19,-21.9 -22.82,-33 -15.91,-23 -31.86,-46.3 -47.94,-70 -7.02,-10.4 -14.08,-21 -21.13,-31.5 -16.91,-25.2 -33.86,-50.5 -50.93,-76.4 -4.82,-7.3 -9.68,-14.8 -14.46,-22.2 -83.59,-127.6 -168.82,-263.7 -255.02,-407.8 -5.03,-8.4 -10.04,-16.7 -15.09,-25.2 -18.03,-30.3 -36.1,-61.2 -54.22,-92.2 -6.92,-11.8 -13.81,-23.6 -20.72,-35.5 -17.49,-30.2 -35.01,-60.8 -52.54,-91.6 -7.38,-12.9 -14.76,-25.9 -22.15,-39 -17.43,-30.9 -34.86,-62 -52.32,-93.5 -7.3,-13.1 -14.59,-26.4 -21.9,-39.7 -17.84,-32.4 -35.67,-64.9 -53.51,-97.9 -6.02,-11.1 -12.04,-22.5 -18.06,-33.6 -19.18,-35.7 -38.35,-71.6 -57.52,-108 l -0.09,-0.1 c -111.41,-211.6 -222.56,-435.3 -331.97,-669.7 l -0.27,-0.7 c -25.58,-54.8 -51.05,-110.1 -76.41,-166.1 l -0.08,-0.1 c -812.22,-1793.4 -1503.66,-4184 -1417.64,-6740.1 14.02,-416.1 48.09,-827.8 98.26,-1232.8 L 3812.5,9223.9 3746.79,5108 l 685.33,325 334.6,2374.9 1840.92,1090.5 c 268.41,-808.8 585.25,-1542.8 915.31,-2168.7 h -77.4 l 490.36,-871.9 h 22.03 C 7734.28,4920.5 7497.22,2742 9480.86,740.602 c 0,0 2272.94,1901.798 1531.64,5117.198 h 25.3 l 490.3,871.9 h -77.2 l 7.8,15.1 c 19.4,37 38.8,74.4 58.2,112.2 13.4,26.3 26.9,52.5 40.3,79.1 19.9,39.5 39.7,79.6 59.4,119.9 12.6,25.6 25.2,50.9 37.6,76.8 21.7,45 43.3,90.7 64.8,136.5 10.3,22.1 20.7,43.8 31,66 31.4,67.9 62.6,136.6 93.5,206.4 l 0.8,1.8 c 186.2,420.5 362.4,874.8 521.7,1354.9 l 1841,-1090.5 334.5,-2374.9 685.4,-325 -65.8,4115.9"
         style="fill:#dbf4fd;fill-opacity:1;fill-rule:nonzero;stroke:none"
         id="path12" />
      <path
         d="M 11012.7,5857.8 H 9862.11 L 9746.49,5108 h -519.33 l -115.62,749.8 H 8374.59 7957.94 C 7734.28,4920.5 7497.22,2742 9480.86,740.602 c 0,0 2273.24,1901.698 1531.84,5117.198"
         style="fill:#dbe926;fill-opacity:1;fill-rule:nonzero;stroke:none"
         id="path14" />
      <path
         d="m 15161.1,9223.9 -2127.9,2610.4 c -90.2,-728.2 -234.3,-1433.9 -415.2,-2100.9 -77.5,-285.9 -161.9,-564.8 -251.6,-835.2 L 14207,7807.9 14541.5,5433 l 685.4,-325 -65.8,4115.9"
         style="fill:#d43e39;fill-opacity:1;fill-rule:nonzero;stroke:none"
         id="path16" />
      <path
         d="m 6355.65,9733.4 c -180.92,667 -324.98,1372.7 -415.23,2100.9 L 3812.5,9223.9 3746.79,5108 l 685.33,325 334.6,2374.9 1840.57,1090.3 c -89.77,270.4 -174.1,549.3 -251.64,835.2"
         style="fill:#d43e39;fill-opacity:1;fill-rule:nonzero;stroke:none"
         id="path18" />
      <path
         d="M 11304.7,20644.3 C 10686.3,21818.7 10061,22625.8 9696.19,22889 l -0.12,0.1 -6.36,4.6 -2.51,1.7 -6.35,4.5 -1.88,1.3 -13.94,9.4 -0.09,0.1 -5.82,3.8 -2.94,1.9 -5.48,3.5 -2.97,1.9 c -6.04,3.7 -12.01,7.4 -17.9,10.8 l -3.21,1.8 -4.81,2.8 -0.34,0.2 -2.86,1.6 -0.65,0.4 -4.22,2.3 -4.71,2.5 -2.45,1.3 -4.41,2.3 -3.7,1.9 -4.11,2 -4.01,2 -3.95,1.8 -1.12,0.6 -4.27,1.9 -1.59,0.7 -3.24,1.5 -0.24,0.1 -4.16,1.8 -3.44,1.4 -3.05,1.2 -1.36,0.5 -3.08,1.2 -4.87,1.8 -2.04,0.8 -2.44,0.8 -4.78,1.6 -2.97,1 h -0.03 l -4.72,1.4 -2.22,0.7 -1.34,0.4 -4.11,1.1 -1.34,0.3 -1.87,0.5 -4.88,1.1 -2.59,0.6 -1.99,0.4 -0.38,0.1 -2.28,0.4 -1.92,0.4 -2.71,0.4 -1.89,0.3 -1.82,0.3 h -0.05 l -0.9,0.1 -4.31,0.5 h -0.08 l -1.14,0.1 -1.88,0.2 -4.04,0.3 h -0.65 l -1.69,0.1 -6.09,0.2 -7.22,-0.2 -2.37,-0.2 -5.06,-0.4 -2.84,-0.4 -4.82,-0.6 -3.19,-0.5 -4.54,-0.8 -3.46,-0.6 -4.82,-1.1 -3.25,-0.8 -5.09,-1.3 -3.35,-0.9 -6.43,-2 -1.93,-0.5 -8.53,-2.9 -3.62,-1.4 -5.26,-1.9 -4.11,-1.7 -4.9,-2 -4.44,-1.9 -4.71,-2.1 -4.76,-2.1 -4.61,-2.2 -4.98,-2.4 -4.31,-2.2 -5.45,-2.8 -3.81,-2 c -7.4,-3.9 -14.95,-8.2 -22.68,-12.7 l -2.54,-1.5 -7.01,-4.2 -3.18,-2 -7.05,-4.4 -3.35,-2.1 -7.25,-4.7 -2.83,-1.9 -8.17,-5.4 -1.63,-1.2 c -361.34,-246 -999.42,-1061.8 -1630.32,-2260 20.11,3.5 40.26,6.9 60.47,10.3 5.78,1 11.58,1.9 17.38,2.9 14.98,2.5 29.96,4.9 44.97,7.3 5.85,1 11.68,1.9 17.53,2.9 15.45,2.4 30.94,4.9 46.44,7.2 5.29,0.9 10.54,1.7 15.8,2.5 19.69,3 39.41,6 59.15,8.9 l 1.09,0.1 c 44.02,6.5 88.25,12.7 132.67,18.6 l 0.98,0.1 c 21.35,2.9 42.75,5.7 64.19,8.4 l 4.53,0.6 c 21.51,2.7 43.08,5.3 64.71,7.9 l 0.27,0.1 c 414.42,49.7 845.29,76.1 1287.69,76.1 634.47,0 1245.37,-54.1 1817.87,-153.9"
         style="fill:#d43e39;fill-opacity:1;fill-rule:nonzero;stroke:none"
         id="path20" />
      <path
         d="m 11636.7,19974.6 c -676.4,141.5 -1402.6,215.7 -2149.87,215.7 -556.05,0 -1100.44,-41.1 -1621.32,-120.5 -89.06,-13.5 -177.42,-28.2 -265.01,-44 l -1.72,-0.3 c -21.19,-3.8 -42.35,-7.7 -63.46,-11.6 l -2.51,-0.5 c -19.96,-3.8 -39.87,-7.6 -59.78,-11.5 l -6.08,-1.1 c -18.79,-3.7 -37.53,-7.4 -56.27,-11.2 l -9.04,-1.8 c -21.59,-4.3 -43.13,-8.7 -64.65,-13.2 -25.68,-55.1 -51.29,-110.7 -76.76,-166.9 21.5,4.7 43.04,9.4 64.64,14 l 0.52,0.1 c 21.49,4.5 43.03,9 64.62,13.5 l 0.82,0.1 c 43.28,8.9 86.75,17.5 130.44,25.9 l 1.36,0.2 c 43.63,8.4 87.46,16.4 131.46,24.2 l 1.4,0.2 c 44.17,7.8 88.53,15.3 133.1,22.5 h 0.48 c 543.36,87.9 1113.95,133.5 1697.76,133.5 776.57,0 1529.77,-80.6 2226.57,-234.2 -25.5,56.2 -51.1,111.8 -76.7,166.9"
         style="fill:#d43e39;fill-opacity:1;fill-rule:nonzero;stroke:none"
         id="path22" />
      <path
         d="m 9486.83,18342 c -1149.09,0 -2080.61,-931.5 -2080.61,-2080.6 0,-1149 931.52,-2080.6 2080.61,-2080.6 1149.07,0 2080.67,931.6 2080.67,2080.6 0,1149.1 -931.6,2080.6 -2080.67,2080.6"
         style="fill:#ffffff;fill-opacity:1;fill-rule:nonzero;stroke:none"
         id="path24" />
      <path
         d="m 9987.26,14617.3 4.46,1.4 c 5.77,1.8 11.58,3.6 17.28,5.4 l 2.4,0.8 c 13.8,4.4 27.4,9 41,13.7 l 0.9,0.3 c 6.6,2.3 13.2,4.7 19.7,7 l 0.9,0.4 c 659.8,239.9 1131.1,872.4 1131.1,1615.1 0,948.9 -769.2,1718.2 -1718.17,1718.2 -750.24,0 -1388.11,-480.9 -1622.37,-1151.2 l -0.21,-0.6 c -4.75,-13.6 -9.35,-27.3 -13.76,-41.1 l -0.76,-2.4 c -1.8,-5.6 -3.57,-11.3 -5.32,-16.9 l -1.57,-5.2 -4.5,-15 -1.49,-5.1 c -1.91,-6.6 -3.78,-13.2 -5.64,-19.8 l -0.65,-2.4 c -3.55,-12.8 -6.95,-25.7 -10.22,-38.7 l -1.08,-4.4 -2.92,-11.9 -1.06,-4.4 c -1.56,-6.6 -3.08,-13.2 -4.58,-19.8 l -1.64,-7.3 -2.12,-9.8 -1.9,-8.9 -2.65,-12.9 -2.28,-11.6 -1.69,-8.9 -1.8,-9.8 -1.52,-8.3 c -1.01,-5.7 -1.97,-11.3 -2.92,-16.9 l -1.03,-6.3 -1.99,-12.7 -1.03,-6.6 c -0.9,-5.9 -1.77,-11.9 -2.62,-17.8 l -0.63,-4.7 -2.01,-15 -0.68,-5.3 c -0.79,-6.2 -1.56,-12.5 -2.26,-18.8 l -0.14,-1.3 c -0.71,-6.2 -1.39,-12.4 -2.02,-18.6 l -0.46,-4.5 c -0.57,-5.9 -1.14,-11.8 -1.68,-17.7 l -0.2,-2.1 c -0.57,-6.6 -1.11,-13.2 -1.63,-19.8 l -0.27,-3.7 c -0.44,-5.8 -0.84,-11.6 -1.21,-17.4 l -0.21,-3.2 c -0.44,-6.7 -0.82,-13.4 -1.14,-20.1 l -0.14,-2.7 c -0.3,-5.9 -0.55,-11.8 -0.79,-17.8 l -0.17,-3.9 c -0.24,-6.7 -0.46,-13.5 -0.62,-20.2 l -0.03,-1.3 c -0.16,-6.2 -0.27,-12.5 -0.35,-18.8 l -0.08,-4.4 c -0.06,-6.7 -0.12,-13.4 -0.12,-20.2 0,-146.7 18.42,-289.2 53.06,-425.2 l 2.45,-9.6 c 4.38,-16.7 8.99,-33.4 13.87,-50 l 3.59,-12 c 8.83,-29.3 18.41,-58.2 28.74,-86.8 3.24,-9 6.5,-17.9 9.88,-26.8 18.69,-49.1 39.57,-97.1 62.5,-144 3.06,-6.2 6.14,-12.4 9.24,-18.5 3.05,-6.1 6.13,-12.1 9.24,-18.1 6.61,-12.7 13.4,-25.4 20.34,-38 2.94,-5.3 5.91,-10.6 8.94,-16 3.88,-6.9 7.87,-13.8 11.87,-20.6 l 8.63,-14.6 c 4.3,-7.2 8.69,-14.4 13.07,-21.5 9.89,-16 19.99,-31.8 30.34,-47.4 5.18,-7.8 10.38,-15.5 15.67,-23.2 44.2,-64.3 92.62,-125.4 144.92,-182.9 13.86,-15.3 28,-30.3 42.4,-45 9.53,-9.8 19.21,-19.5 28.99,-29 19.71,-19.3 39.9,-38.1 60.51,-56.3 5.15,-4.6 10.3,-9.1 15.49,-13.6 10.41,-9.1 20.9,-17.9 31.53,-26.7 5.27,-4.4 10.61,-8.7 15.98,-13 10.71,-8.6 21.52,-17.2 32.44,-25.5 5.47,-4.2 10.94,-8.3 16.48,-12.5 10.99,-8.2 22.14,-16.3 33.36,-24.3 5.61,-4 11.25,-8 16.91,-11.9 11.34,-7.9 22.77,-15.6 34.29,-23.2 11.52,-7.5 23.15,-15 34.86,-22.3 11.71,-7.3 23.51,-14.5 35.41,-21.5 11.9,-7.1 23.92,-14 35.98,-20.7 18.14,-10.1 36.47,-20 54.99,-29.5 12.33,-6.3 24.78,-12.5 37.28,-18.5 37.56,-18.1 75.88,-34.9 114.91,-50.3 19.5,-7.6 39.2,-15 59.02,-22 19.85,-7 39.87,-13.6 60.06,-19.9 13.46,-4.2 26.96,-8.2 40.55,-12 6.78,-2 13.62,-3.8 20.42,-5.7 12.29,-3.3 24.65,-6.5 37.05,-9.6 8.28,-2 16.56,-4 24.87,-5.9 6.94,-1.6 13.89,-3.2 20.83,-4.7 13.92,-3 27.89,-5.9 41.94,-8.6 105.32,-20.1 214.06,-30.7 325.26,-30.7 6.53,0 13.06,0 19.61,0.1 l 5.52,0.1 c 5.73,0.1 11.41,0.2 17.11,0.3 l 2.75,0.1 c 6.51,0.1 12.98,0.3 19.47,0.6 l 5.07,0.2 c 5.36,0.2 10.73,0.4 16.12,0.7 l 4,0.2 c 6.43,0.3 12.86,0.7 19.29,1.1 l 4.51,0.3 c 5.27,0.3 10.52,0.7 15.77,1.1 l 4.91,0.4 c 6.34,0.5 12.69,0.9 19.01,1.5 l 3.62,0.3 c 5.32,0.5 10.6,1.1 15.91,1.6 l 5.67,0.5 c 5.49,0.6 11,1.2 16.5,1.8 l 4.63,0.6 c 5.51,0.6 10.98,1.2 16.47,1.9 l 6.49,0.9 13.29,1.7 6.07,0.9 c 5.73,0.8 11.42,1.6 17.13,2.5 l 7.25,1.1 11.99,1.9 7.07,1.2 c 5.4,0.8 10.76,1.8 16.13,2.7 l 9.64,1.8 8.22,1.5 10,1.9 8.28,1.7 c 5.64,1.1 11.28,2.2 16.92,3.4 l 7.22,1.5 10.81,2.4 5.36,1.2 c 7.76,1.7 15.53,3.5 23.26,5.4 l 1.93,0.4 12.97,3.2 2.81,0.7 c 13.53,3.4 27.01,6.9 40.44,10.7 l 0.89,0.2 c 6.6,1.9 13.13,3.7 19.67,5.6 l 5.24,1.5 c 5.14,1.6 10.29,3.1 15.41,4.6"
         style="fill:#406ebf;fill-opacity:1;fill-rule:nonzero;stroke:none"
         id="path26" />
      <path
         d="m 9227.16,5108 -115.62,749.8 h -736.95 c -60.24,-760.8 78.45,-1891.9 1106.27,-2928.7 0,0 1267.54,1103.3 1127.64,2928.7 H 9862.11 L 9746.49,5108 h -519.33"
         style="fill:#d7742d;fill-opacity:1;fill-rule:nonzero;stroke:none"
         id="path28" />
      <path
         d="M 14727.4,5610 14392.8,8147.1 12618,9733.4 c -77.5,-285.9 -161.9,-564.8 -251.6,-835.2 L 14207,7807.9 14541.5,5433 l 685.4,-325 -499.5,502"
         style="fill:#a9322d;fill-opacity:1;fill-rule:nonzero;stroke:none"
         id="path30" />
      <path
         d="M 4580.83,8147.1 4246.24,5610 l -499.45,-502 685.33,325 334.6,2374.9 1840.57,1090.3 c -89.77,270.4 -174.1,549.3 -251.64,835.2 L 4580.83,8147.1"
         style="fill:#a9322d;fill-opacity:1;fill-rule:nonzero;stroke:none"
         id="path32" />
      <path
         d="m 11647,17662.8 c 146.5,-567.5 283.3,-1138.3 380,-1716.7 196.6,-1177.1 270.6,-2376 202.3,-3567.9 -43.8,-782.8 -145.8,-1566.4 -262.8,-2365.4 13,88.7 97.2,201.6 134.4,284.6 45.7,102 89.2,204.8 130.5,308.5 79.9,200.5 151.7,404.2 215.5,610.4 412.2,1333.6 484.4,2761.5 271,4137.7 -217.4,1402.3 -723,2790.8 -1537.4,3958 134.3,-253.2 168.2,-513 240.1,-787 75.4,-287.4 152.2,-574.4 226.4,-862.2"
         style="fill:#f5fcfe;fill-opacity:1;fill-rule:nonzero;stroke:none"
         id="path34" />
      <path
         d="m 10125,7562.9 -128.46,-833.2 h 1454.56 l 7.7,14.6 4.1,7.8 c 6.4,12.3 12.9,24.6 19.3,37 l 4.2,8.1 c 6.5,12.5 13,25.1 19.5,37.7 l 3.7,7.2 c 6.8,13.2 13.6,26.4 20.3,39.7 l 1.6,3.1 c 6.9,13.4 13.7,27 20.6,40.5 l 1.7,3.4 c 6.5,13 13.1,26 19.6,39.1 l 4.5,9 c 6.3,12.7 12.7,25.4 19,38.2 l 4,8 c 6.4,13.1 12.9,26.1 19.3,39.3 l 3.9,7.9 c 6.2,12.8 12.5,25.6 18.7,38.5 l 3.1,6.4 c 6.2,12.7 12.3,25.4 18.5,38.2 l 3.5,7.4 c 6.3,13.1 12.6,26.4 19,39.6 l 4.3,9.2 c 6.4,13.4 12.7,26.8 19.1,40.3 l 3.5,7.6 c 6.5,13.8 13,27.6 19.5,41.5 l 2.7,6 c 6,12.8 11.9,25.6 17.9,38.5 l 3.3,7.1 c 6.3,13.7 12.6,27.4 18.9,41.2 l 3.9,8.4 c 6.1,13.5 12.2,27 18.3,40.5 l 4.9,10.7 c 6,13.3 12,26.8 18,40.2 l 3.9,8.7 c 6.1,13.6 12.2,27.2 18.2,40.9 l 1,2.3 -1719.3,19.4"
         style="fill:#bbdaee;fill-opacity:1;fill-rule:nonzero;stroke:none"
         id="path36" />
      <path
         d="m 8843.38,7597 -438.37,12.8 c -954.35,1490.4 -1899.78,3997.8 -1918.06,6664 -14.43,2103.6 572.56,4069.6 1302.12,5634.6 h -0.48 c -44.57,-7.2 -88.93,-14.7 -133.1,-22.5 l -1.4,-0.2 c -44,-7.8 -87.83,-15.8 -131.46,-24.2 l -1.36,-0.2 c -43.69,-8.4 -87.16,-17 -130.44,-25.9 l -0.82,-0.1 c -21.59,-4.5 -43.13,-9 -64.62,-13.5 l -0.52,-0.1 c -21.52,-4.6 -43,-9.3 -64.41,-14 -812.32,-1793.3 -1503.89,-4183.8 -1417.87,-6740.1 14.02,-416.3 47.61,-828.3 97.83,-1233.3 90.25,-728.2 234.31,-1433.9 415.23,-2100.9 77.54,-285.9 161.87,-564.8 251.64,-835.2 268.33,-808.6 585.3,-1542.7 915.29,-2168.5 H 8977.11 L 8843.38,7597"
         style="fill:#bbdaee;fill-opacity:1;fill-rule:nonzero;stroke:none"
         id="path38" />
      <path
         d="m 7336.99,19974.6 c 21.52,4.5 43.06,8.9 64.65,13.2 l 9.04,1.8 c 18.74,3.8 37.48,7.5 56.27,11.2 l 6.08,1.1 c 19.91,3.9 39.82,7.7 59.78,11.5 l 2.51,0.5 c 21.11,3.9 42.27,7.8 63.46,11.6 l 1.72,0.3 c 87.59,15.8 175.95,30.5 265.01,44 108.93,226.7 220.62,444.4 333.63,652.3 l -0.27,-0.1 c -21.63,-2.6 -43.2,-5.2 -64.71,-7.9 l -4.53,-0.6 c -21.44,-2.7 -42.84,-5.5 -64.19,-8.4 l -0.98,-0.1 c -44.42,-5.9 -88.65,-12.1 -132.67,-18.6 l -1.09,-0.1 c -19.74,-2.9 -39.46,-5.9 -59.15,-8.9 -5.26,-0.8 -10.51,-1.6 -15.8,-2.5 -15.5,-2.3 -30.99,-4.8 -46.44,-7.2 -5.85,-1 -11.7,-1.9 -17.53,-2.9 -15.01,-2.4 -29.99,-4.8 -44.97,-7.3 -5.8,-1 -11.6,-1.9 -17.38,-2.9 -20.18,-3.4 -40.34,-6.8 -60.41,-10.3 -112.98,-214.6 -225.67,-441.4 -336.58,-679.5 h 0.08 l 4.47,9.8"
         style="fill:#bbdaee;fill-opacity:1;fill-rule:nonzero;stroke:none"
         id="path40" />
      <path
         d="m 9111.54,5857.8 -134.43,871.9 H 7445.55 l 490.36,-871.9 h 22.03 416.65 736.95"
         style="fill:#515165;fill-opacity:1;fill-rule:nonzero;stroke:none"
         id="path42" />
      <path
         d="m 9996.54,6729.7 -134.43,-871.9 h 1175.69 l 490.3,871.9 h -77 -1454.56"
         style="fill:#515165;fill-opacity:1;fill-rule:nonzero;stroke:none"
         id="path44" />
      <path
         d="m 7668.96,20644.3 c 20.11,3.5 40.26,6.9 60.47,10.3 5.78,1 11.58,1.9 17.38,2.9 14.98,2.5 29.96,4.9 44.97,7.3 5.85,1 11.68,1.9 17.53,2.9 15.45,2.4 30.94,4.9 46.44,7.2 5.29,0.9 10.54,1.7 15.8,2.5 19.69,3 39.41,6 59.15,8.9 l 1.09,0.1 c 44.02,6.5 88.25,12.7 132.67,18.6 l 0.98,0.1 c 21.35,2.9 42.75,5.7 64.19,8.4 l 4.53,0.6 c 21.51,2.7 43.08,5.3 64.71,7.9 l 0.27,0.1 c 519.58,956.1 1066.25,1705.8 1497.05,2166.9 l -0.12,0.1 -6.36,4.6 -2.51,1.7 -6.35,4.5 -1.88,1.3 -13.94,9.4 -0.09,0.1 -5.82,3.8 -2.94,1.9 -5.48,3.5 -2.97,1.9 c -6.04,3.7 -12.01,7.4 -17.9,10.8 l -3.21,1.8 -4.81,2.8 -0.34,0.2 -2.86,1.6 -0.65,0.4 -4.22,2.3 -4.71,2.5 -2.45,1.3 -4.41,2.3 -3.7,1.9 -4.11,2 -4.01,2 -3.95,1.8 -1.12,0.6 -4.27,1.9 -1.59,0.7 -3.24,1.5 -0.24,0.1 -4.16,1.8 -3.44,1.4 -3.05,1.2 -1.36,0.5 -3.08,1.2 -4.87,1.8 -2.04,0.8 -2.44,0.8 -4.78,1.6 -2.97,1 h -0.03 l -4.72,1.4 -2.22,0.7 -1.34,0.4 -4.11,1.1 -1.34,0.3 -1.87,0.5 -4.88,1.1 -2.59,0.6 -1.99,0.4 -0.38,0.1 -2.28,0.4 -1.92,0.4 -2.71,0.4 -1.89,0.3 -1.82,0.3 h -0.05 l -0.9,0.1 -4.31,0.5 h -0.08 l -1.14,0.1 -1.88,0.2 -4.04,0.3 h -0.65 l -1.69,0.1 -6.09,0.2 -7.22,-0.2 -2.37,-0.2 -5.06,-0.4 -2.84,-0.4 -4.82,-0.6 -3.19,-0.5 -4.54,-0.8 -3.46,-0.6 -4.82,-1.1 -3.25,-0.8 -5.09,-1.3 -3.35,-0.9 -6.43,-2 -1.93,-0.5 -8.53,-2.9 -3.62,-1.4 -5.26,-1.9 -4.11,-1.7 -4.9,-2 -4.44,-1.9 -4.71,-2.1 -4.76,-2.1 -4.61,-2.2 -4.98,-2.4 -4.31,-2.2 -5.45,-2.8 -3.81,-2 c -7.4,-3.9 -14.95,-8.2 -22.68,-12.7 l -2.54,-1.5 -7.01,-4.2 -3.18,-2 -7.05,-4.4 -3.35,-2.1 -7.25,-4.7 -2.83,-1.9 -8.17,-5.4 -1.63,-1.2 c -361.34,-246 -999.42,-1061.8 -1630.32,-2260"
         style="fill:#a9322d;fill-opacity:1;fill-rule:nonzero;stroke:none"
         id="path46" />
      <path
         d="m 7789.07,19908.4 c 25.33,54.3 50.8,108.1 76.44,161.4 -89.05,-13.5 -177.39,-28.2 -265.01,-44 l -1.72,-0.3 c -21.19,-3.8 -42.35,-7.7 -63.46,-11.6 l -2.51,-0.5 c -19.96,-3.8 -39.87,-7.6 -59.78,-11.5 l -6.08,-1.1 c -18.79,-3.7 -37.53,-7.4 -56.27,-11.2 l -9.04,-1.8 c -21.59,-4.3 -43.13,-8.7 -64.65,-13.2 -25.68,-55.1 -51.29,-110.7 -76.76,-166.9 21.5,4.7 43.04,9.4 64.64,14 l 0.52,0.1 c 21.49,4.5 43.03,9 64.62,13.5 l 0.82,0.1 c 43.28,8.9 86.75,17.5 130.44,25.9 l 1.36,0.2 c 43.63,8.4 87.46,16.4 131.46,24.2 l 1.4,0.2 c 44.17,7.8 88.53,15.3 133.1,22.5 h 0.48"
         style="fill:#a9322d;fill-opacity:1;fill-rule:nonzero;stroke:none"
         id="path48" />
      <path
         d="m 9486.83,18042.3 c 58.55,0 106.02,47.4 106.02,106 0,58.5 -47.47,106 -106.02,106 -58.57,0 -106.03,-47.5 -106.03,-106 0,-58.6 47.46,-106 106.03,-106"
         style="fill:#bbdaee;fill-opacity:1;fill-rule:nonzero;stroke:none"
         id="path50" />
      <path
         d="m 9486.83,14480.6 c -58.57,0 -106.03,-47.4 -106.03,-106 0,-58.6 47.46,-106 106.03,-106 58.55,0 106.02,47.4 106.02,106 0,58.6 -47.47,106 -106.02,106"
         style="fill:#bbdaee;fill-opacity:1;fill-rule:nonzero;stroke:none"
         id="path52" />
      <path
         d="m 11373.7,16367.5 c -58.6,0 -106.1,-47.5 -106.1,-106.1 0,-58.5 47.5,-106 106.1,-106 58.5,0 106,47.5 106,106 0,58.6 -47.5,106.1 -106,106.1"
         style="fill:#bbdaee;fill-opacity:1;fill-rule:nonzero;stroke:none"
         id="path54" />
      <path
         d="m 7599.98,16367.5 c -58.55,0 -106.03,-47.5 -106.03,-106.1 0,-58.5 47.48,-106 106.03,-106 58.56,0 106.03,47.5 106.03,106 0,58.6 -47.47,106.1 -106.03,106.1"
         style="fill:#bbdaee;fill-opacity:1;fill-rule:nonzero;stroke:none"
         id="path56" />
      <path
         d="m 10896,17520.7 c 41.4,41.4 41.4,108.5 0,149.9 -41.4,41.4 -108.5,41.4 -149.9,0 -41.5,-41.4 -41.5,-108.5 0,-149.9 41.4,-41.4 108.5,-41.4 149.9,0"
         style="fill:#bbdaee;fill-opacity:1;fill-rule:nonzero;stroke:none"
         id="path58" />
      <path
         d="m 8077.67,15002.2 c -41.43,-41.4 -41.43,-108.5 0,-149.9 41.4,-41.4 108.53,-41.4 149.94,0 41.38,41.4 41.38,108.5 0,149.9 -41.41,41.4 -108.54,41.4 -149.94,0"
         style="fill:#bbdaee;fill-opacity:1;fill-rule:nonzero;stroke:none"
         id="path60" />
      <path
         d="m 10746.1,15002.2 c -41.5,-41.4 -41.5,-108.5 0,-149.9 41.4,-41.4 108.5,-41.4 149.9,0 41.4,41.4 41.4,108.5 0,149.9 -41.4,41.4 -108.5,41.4 -149.9,0"
         style="fill:#bbdaee;fill-opacity:1;fill-rule:nonzero;stroke:none"
         id="path62" />
      <path
         d="m 8227.61,17520.7 c 41.38,41.4 41.38,108.5 0,149.9 -41.41,41.4 -108.54,41.4 -149.94,0 -41.43,-41.4 -41.43,-108.5 0,-149.9 41.4,-41.4 108.53,-41.4 149.94,0"
         style="fill:#bbdaee;fill-opacity:1;fill-rule:nonzero;stroke:none"
         id="path64" />
      <path
         d="m 10197.7,15254.2 c -948.89,0 -1718.14,769.2 -1718.14,1718.1 0,291.5 72.83,565.9 200.89,806.4 -410.66,-218.7 -722.16,-599.2 -849.24,-1056.4 l -0.65,-2.4 c -3.55,-12.8 -6.95,-25.7 -10.22,-38.7 l -1.08,-4.4 -2.92,-11.9 -1.06,-4.4 c -1.56,-6.6 -3.08,-13.2 -4.58,-19.8 l -1.64,-7.3 -2.12,-9.8 -1.9,-8.9 -2.65,-12.9 -2.28,-11.6 -1.69,-8.9 -1.8,-9.8 -1.52,-8.3 c -1.01,-5.7 -1.97,-11.3 -2.92,-16.9 l -1.03,-6.3 -1.99,-12.7 -1.03,-6.6 c -0.9,-5.9 -1.77,-11.9 -2.62,-17.8 l -0.63,-4.7 -2.01,-15 -0.68,-5.3 c -0.79,-6.2 -1.56,-12.5 -2.26,-18.8 l -0.14,-1.3 c -0.71,-6.2 -1.39,-12.4 -2.02,-18.6 l -0.46,-4.5 c -0.57,-5.9 -1.14,-11.8 -1.68,-17.7 l -0.2,-2.1 c -0.57,-6.6 -1.11,-13.2 -1.63,-19.8 l -0.27,-3.7 c -0.44,-5.8 -0.84,-11.6 -1.21,-17.4 l -0.21,-3.2 c -0.44,-6.7 -0.82,-13.4 -1.14,-20.1 l -0.14,-2.7 c -0.3,-5.9 -0.55,-11.8 -0.79,-17.8 l -0.17,-3.9 c -0.24,-6.7 -0.46,-13.5 -0.62,-20.2 l -0.03,-1.3 c -0.16,-6.2 -0.27,-12.5 -0.35,-18.8 l -0.08,-4.4 c -0.06,-6.7 -0.12,-13.4 -0.12,-20.2 0,-146.7 18.42,-289.2 53.06,-425.2 l 2.45,-9.6 c 4.38,-16.7 8.99,-33.4 13.87,-50 l 3.59,-12 c 8.83,-29.3 18.41,-58.2 28.74,-86.8 3.24,-9 6.5,-17.9 9.88,-26.8 18.69,-49.1 39.57,-97.1 62.5,-144 3.06,-6.2 6.14,-12.4 9.24,-18.5 3.05,-6.1 6.13,-12.1 9.24,-18.1 6.61,-12.7 13.4,-25.4 20.34,-38 2.94,-5.3 5.91,-10.6 8.94,-16 3.88,-6.9 7.87,-13.8 11.87,-20.6 l 8.63,-14.6 c 4.3,-7.2 8.69,-14.4 13.07,-21.5 9.89,-16 19.99,-31.8 30.34,-47.4 5.18,-7.8 10.38,-15.5 15.67,-23.2 44.2,-64.3 92.62,-125.4 144.92,-182.9 13.86,-15.3 28,-30.3 42.4,-45 9.53,-9.8 19.21,-19.5 28.99,-29 19.71,-19.3 39.9,-38.1 60.51,-56.3 5.15,-4.6 10.3,-9.1 15.49,-13.6 10.41,-9.1 20.9,-17.9 31.53,-26.7 5.27,-4.4 10.61,-8.7 15.98,-13 10.71,-8.6 21.52,-17.2 32.44,-25.5 5.47,-4.2 10.94,-8.3 16.48,-12.5 10.99,-8.2 22.14,-16.3 33.36,-24.3 5.61,-4 11.25,-8 16.91,-11.9 11.34,-7.9 22.77,-15.6 34.29,-23.2 11.52,-7.5 23.15,-15 34.86,-22.3 11.71,-7.3 23.51,-14.5 35.41,-21.5 11.9,-7.1 23.92,-14 35.98,-20.7 18.14,-10.1 36.47,-20 54.99,-29.5 12.33,-6.3 24.78,-12.5 37.28,-18.5 37.56,-18.1 75.88,-34.9 114.91,-50.3 19.5,-7.6 39.2,-15 59.02,-22 19.85,-7 39.87,-13.6 60.06,-19.9 13.46,-4.2 26.96,-8.2 40.55,-12 6.78,-2 13.62,-3.8 20.42,-5.7 12.29,-3.3 24.65,-6.5 37.05,-9.6 8.28,-2 16.56,-4 24.87,-5.9 6.94,-1.6 13.89,-3.2 20.83,-4.7 13.92,-3 27.89,-5.9 41.94,-8.6 105.32,-20.1 214.06,-30.7 325.26,-30.7 6.53,0 13.06,0 19.61,0.1 l 5.52,0.1 c 5.73,0.1 11.41,0.2 17.11,0.3 l 2.75,0.1 c 6.51,0.1 12.98,0.3 19.47,0.6 l 5.07,0.2 c 5.36,0.2 10.73,0.4 16.12,0.7 l 4,0.2 c 6.43,0.3 12.86,0.7 19.29,1.1 l 4.51,0.3 c 5.27,0.3 10.52,0.7 15.77,1.1 l 4.91,0.4 c 6.34,0.5 12.69,0.9 19.01,1.5 l 3.62,0.3 c 5.32,0.5 10.6,1.1 15.91,1.6 l 5.67,0.5 c 5.49,0.6 11,1.2 16.5,1.8 l 4.63,0.6 c 5.51,0.6 10.98,1.2 16.47,1.9 l 6.49,0.9 13.29,1.7 6.07,0.9 c 5.73,0.8 11.42,1.6 17.13,2.5 l 7.25,1.1 11.99,1.9 7.07,1.2 c 5.4,0.8 10.76,1.8 16.13,2.7 l 9.64,1.8 8.22,1.5 10,1.9 8.28,1.7 c 5.64,1.1 11.28,2.2 16.92,3.4 l 7.22,1.5 10.81,2.4 5.36,1.2 c 7.76,1.7 15.53,3.5 23.26,5.4 l 1.93,0.4 12.97,3.2 2.81,0.7 c 13.53,3.4 27.01,6.9 40.44,10.7 l 0.89,0.2 c 457.56,127 838.26,438.6 1057.16,849.5 -240.5,-128.1 -514.9,-200.9 -806.4,-200.9"
         style="fill:#2a4994;fill-opacity:1;fill-rule:nonzero;stroke:none"
         id="path66" />
      <path
         d="M 10188.7,12705.1 H 8784.9 L 8592.53,9223.9 8843.38,7597 8977.11,6729.7 9111.54,5857.8 9227.16,5108 h 519.33 l 115.62,749.8 134.43,871.9 128.46,833.2 256.1,1661 -192.4,3481.2"
         style="fill:#a9322d;fill-opacity:1;fill-rule:nonzero;stroke:none"
         id="path68" />
      <path
         d="m 9330.52,5153.7 h 312.61 l 381.97,4053.2 129,3428 H 8819.55 l 129.01,-3428 381.96,-4053.2"
         style="fill:#d43e39;fill-opacity:1;fill-rule:nonzero;stroke:none"
         id="path70" />
    </g>
  </g>
</svg>
